<svg xmlns="http://www.w3.org/2000/svg" width="30.132" height="30" viewBox="0 0 30.132 30">
  <g id="Group_5" data-name="Group 5" transform="translate(204.015 1185.005)">
    <path id="Path_26" data-name="Path 26" d="M-193.54-1174.293v-.393q0-3.883,0-7.766a2.393,2.393,0,0,1,2.546-2.553h12.764a2.392,2.392,0,0,1,2.543,2.555c0,3.392.007,6.784,0,10.176a5.182,5.182,0,0,0,1.546,3.832.747.747,0,0,1,.207.839c-.111.306-.364.435-.76.454a4.244,4.244,0,0,1-3.317-1.162c-.026,0-.049,0-.06.011a4.356,4.356,0,0,1-3.212,1.154c-1.021-.029-2.043-.006-3.064-.006h-.364v.338q0,2.976,0,5.951a4.515,4.515,0,0,0,3.031,4.454.71.71,0,0,1,.515.8.744.744,0,0,1-.777.6c-1.041,0-2.083.016-3.124,0a4.61,4.61,0,0,1-3.165-1.31.7.7,0,0,1-.11-1.068.687.687,0,0,1,1.051.016,3.6,3.6,0,0,0,2.883.922c-.071-.081-.12-.137-.17-.193a5.84,5.84,0,0,1-1.582-4.055q-.006-5.132,0-10.265a1.685,1.685,0,0,0-1.88-1.9h-12.7a1.673,1.673,0,0,0-1.84,1.846q0,6.367,0,12.734a1.674,1.674,0,0,0,1.841,1.845h9.908c.488,0,.763.2.827.594a.7.7,0,0,1-.616.827,1.663,1.663,0,0,1-.208.006q-5.013,0-10.027,0a3.064,3.064,0,0,1-3.062-2.372,3.607,3.607,0,0,1-.088-.825q-.008-6.442,0-12.883a3.082,3.082,0,0,1,3.209-3.2q3.451,0,6.9,0Zm11.227,0c.048.118.094.226.135.336.2.529.386,1.061.592,1.586a.688.688,0,0,0,.9.411.706.706,0,0,0,.439-.888c-.022-.076-.049-.151-.077-.225q-1.721-4.588-3.443-9.176c-.161-.428-.394-.626-.74-.613a.765.765,0,0,0-.713.606q-1.43,3.84-2.879,7.674c-.032.086-.059.174-.1.288Z" transform="translate(0 0)" fill="#2c62d6"/>
    <path id="Path_27" data-name="Path 27" d="M-123.356-939.7c-.437.88-.847,1.766-1.313,2.623a5.886,5.886,0,0,1-1.525,1.833,3.042,3.042,0,0,1-4.878-1.515,3.019,3.019,0,0,1,.4-2.382,5.1,5.1,0,0,1,2.377-2.006.359.359,0,0,0,.255-.4c-.017-.5-.005-1-.005-1.531-.064,0-.163-.014-.262-.014-.546,0-1.092.009-1.637-.008a.64.64,0,0,1-.663-.572.643.643,0,0,1,.409-.724,1.362,1.362,0,0,1,.416-.05c.62-.005,1.24,0,1.879,0,.066-.414.123-.81.194-1.2a.681.681,0,0,1,.82-.645c.375.066.57.409.5.869-.048.3-.089.61-.138.949h4.309c.085,0,.17,0,.254,0a.663.663,0,0,1,.646.711.643.643,0,0,1-.685.637c-1.167.006-2.334,0-3.5,0h-1.162v1.4a5.388,5.388,0,0,1,.657-.073c.525,0,1.05.022,1.573.053.138.008.236.021.34-.105a.639.639,0,0,1,.766-.176.73.73,0,0,1,.417.68.415.415,0,0,0,.133.285,3.34,3.34,0,0,1,.7,4.783,14.39,14.39,0,0,1-1.34,1.484.622.622,0,0,1-.911-.018.624.624,0,0,1-.049-.889c.167-.2.373-.372.547-.569a9.837,9.837,0,0,0,.813-.972A1.853,1.853,0,0,0-123.356-939.7Zm-3.974,3.515c-.146-.611-.307-1.2-.422-1.8s-.186-1.211-.279-1.841a3.484,3.484,0,0,0-1.545,1.423,1.585,1.585,0,0,0,.233,1.994A1.667,1.667,0,0,0-127.331-936.184Zm.667-4.123a14.627,14.627,0,0,0,.471,3.05,13.213,13.213,0,0,0,1.566-3.133A4.461,4.461,0,0,0-126.664-940.307Z" transform="translate(-68.733 -223.687)" fill="#2c62d6"/>
    <path id="Path_28" data-name="Path 28" d="M208.694-703.619a.683.683,0,0,1-.661-.7.683.683,0,0,1,.7-.654.683.683,0,0,1,.648.682A.683.683,0,0,1,208.694-703.619Z" transform="translate(-387.239 -451.394)" fill="#2c62d6"/>
    <path id="Path_29" data-name="Path 29" d="M98.128-1093.452l-.067.007-1.515,4.067h3.1Z" transform="translate(-282.562 -86.058)" fill="#2c62d6"/>
    <path id="Path_30" data-name="Path 30" d="M99.647-1089.378h-3.1l1.515-4.067.067-.007" transform="translate(-282.562 -86.058)" fill="#2c62d6"/>
  </g>
</svg>
