<svg xmlns="http://www.w3.org/2000/svg" width="40.897" height="40.885" viewBox="0 0 40.897 40.885">
  <g id="Group_74" data-name="Group 74" transform="translate(0)">
    <path id="Path_31" data-name="Path 31" d="M-1663.68-514.32a15.586,15.586,0,0,1,15.61,15.647,15.522,15.522,0,0,1-15.644,15.589,15.577,15.577,0,0,1-15.593-15.61A15.58,15.58,0,0,1-1663.68-514.32Zm-.031,28.8a13.1,13.1,0,0,0,13.162-13.128,13.2,13.2,0,0,0-13.121-13.255,13.233,13.233,0,0,0-13.214,13.18A13.189,13.189,0,0,0-1663.711-485.523Z" transform="translate(1679.307 514.32)" fill="#2c62d6"/>
    <path id="Path_32" data-name="Path 32" d="M-1414.29-245.444a3.9,3.9,0,0,1,.2-1.052.739.739,0,0,0-.283-1.037,4.873,4.873,0,0,1-.58-.583,1.2,1.2,0,0,1,.021-1.672,1.1,1.1,0,0,1,1.65-.063,2.069,2.069,0,0,0,2.4.764,3.034,3.034,0,0,1,2.907.969c1.806,1.784,3.613,3.568,5.383,5.389a3.646,3.646,0,0,1-.025,5.112,3.665,3.665,0,0,1-5.115.15c-1.881-1.78-3.712-3.614-5.543-5.446A3.605,3.605,0,0,1-1414.29-245.444Zm3.756-1.345a1.4,1.4,0,0,0-1.161.851,1.275,1.275,0,0,0,.358,1.45c1.7,1.685,3.4,3.378,5.109,5.059a1.2,1.2,0,0,0,1.779.015,1.188,1.188,0,0,0-.064-1.741q-2.584-2.609-5.2-5.188A3.383,3.383,0,0,0-1410.534-246.789Z" transform="translate(1442.462 277.385)" fill="#2c62d6"/>
    <path id="Path_33" data-name="Path 33" d="M-1631.182-456.748a10.757,10.757,0,0,1,10.382-10.076,1.289,1.289,0,0,1,1.388.752,1.223,1.223,0,0,1-1.213,1.712,8.1,8.1,0,0,0-5.342,2.087,8.109,8.109,0,0,0-2.741,5.523c0,.051,0,.1-.01.154-.079.888-.611,1.436-1.338,1.381C-1630.823-455.273-1631.228-455.825-1631.182-456.748Z" transform="translate(1636.139 471.713)" fill="#2c62d6"/>
    <path id="Path_34" data-name="Path 34" d="M-1606.5-314.743a1.243,1.243,0,0,1-1.236,1.24,1.246,1.246,0,0,1-1.227-1.25,1.243,1.243,0,0,1,1.21-1.213A1.244,1.244,0,0,1-1606.5-314.743Z" transform="translate(1616.205 336.385)" fill="#2c62d6"/>
  </g>
</svg>
